<?xml version="1.0" standalone="no"?>
<!DOCTYPE svg PUBLIC "-//W3C//DTD SVG 20010904//EN"
 "http://www.w3.org/TR/2001/REC-SVG-20010904/DTD/svg10.dtd">
<svg version="1.0" xmlns="http://www.w3.org/2000/svg"
 width="512.000000pt" height="512.000000pt" viewBox="0 0 512.000000 512.000000"
 preserveAspectRatio="xMidYMid meet">
<metadata>
Created by potrace 1.11, written by Peter Selinger 2001-2013
</metadata>
<g transform="translate(0.000000,512.000000) scale(0.100000,-0.100000)"
fill="#000000" stroke="none">
<path d="M2265 5025 c-455 -56 -906 -246 -1260 -532 -120 -97 -316 -296 -407
-414 -257 -331 -428 -735 -495 -1169 -24 -161 -24 -539 0 -700 67 -434 238
-838 495 -1169 91 -118 287 -317 407 -414 437 -353 989 -547 1555 -547 540 0
1051 170 1493 497 131 97 393 359 490 490 255 345 402 694 474 1128 26 157 26
573 0 730 -72 434 -219 783 -474 1128 -97 131 -359 393 -490 490 -362 268
-771 431 -1211 482 -153 18 -426 18 -577 0z m1601 -1474 c21 -16 91 -82 155
-147 90 -92 120 -129 130 -161 27 -94 82 -34 -959 -1075 -1041 -1040 -980
-986 -1074 -959 -37 11 -115 84 -590 559 -602 602 -586 583 -559 675 10 33 41
70 145 175 72 74 143 140 158 148 32 17 111 18 141 3 12 -6 185 -174 385 -373
l362 -361 763 761 c419 419 771 767 782 773 11 6 43 11 71 11 41 0 59 -6 90
-29z"/>
</g>
</svg>
