<?xml version="1.0" standalone="no"?>
<!DOCTYPE svg PUBLIC "-//W3C//DTD SVG 20010904//EN"
 "http://www.w3.org/TR/2001/REC-SVG-20010904/DTD/svg10.dtd">
<svg version="1.0" xmlns="http://www.w3.org/2000/svg"
 width="700.000000pt" height="700.000000pt" viewBox="0 0 700.000000 700.000000"
 preserveAspectRatio="xMidYMid meet">
<metadata>
Created by potrace 1.11, written by Peter Selinger 2001-2013
</metadata>
<g transform="translate(0.000000,700.000000) scale(0.100000,-0.100000)"
fill="#000000" stroke="none">
<path d="M3278 6995 c-1 -1 -41 -5 -88 -9 -87 -7 -105 -9 -225 -27 -116 -18
-123 -19 -192 -35 -184 -42 -249 -59 -373 -101 -454 -151 -868 -390 -1225
-707 -358 -318 -674 -746 -857 -1159 -27 -62 -53 -121 -58 -132 -46 -95 -150
-427 -176 -560 -2 -11 -10 -54 -19 -95 -29 -147 -36 -200 -52 -370 -15 -164
-8 -592 12 -711 2 -13 6 -46 9 -74 9 -78 23 -156 51 -285 23 -107 88 -333 114
-395 5 -11 26 -65 46 -120 65 -172 213 -462 314 -615 213 -323 469 -603 771
-845 92 -74 370 -265 386 -265 4 0 15 -6 23 -14 29 -25 304 -161 431 -213 269
-110 577 -194 835 -228 22 -2 56 -7 75 -10 186 -26 698 -27 838 0 16 3 104 15
147 20 321 41 829 220 1153 406 47 27 87 49 89 49 2 0 9 5 16 10 7 6 62 43
122 83 253 168 492 376 678 592 33 39 63 72 67 75 17 13 181 236 245 335 219
336 406 779 481 1140 16 79 54 301 59 350 4 33 9 71 11 85 9 46 11 524 4 605
-12 128 -21 202 -25 227 -3 13 -8 43 -11 68 -9 67 -70 335 -94 412 -11 37 -21
70 -21 73 0 2 -16 49 -35 102 -222 616 -576 1124 -1074 1541 -66 56 -304 230
-351 257 -235 137 -500 275 -527 275 -4 0 -26 8 -48 19 -98 47 -408 141 -579
176 -44 9 -89 19 -100 21 -11 2 -38 6 -60 9 -22 3 -51 7 -65 10 -13 2 -52 7
-86 11 -33 3 -74 8 -90 10 -32 5 -540 14 -546 9z m2039 -2074 c48 -25 395
-374 418 -421 24 -47 25 -144 1 -192 -11 -23 -522 -541 -1349 -1368 -1258
-1257 -1333 -1331 -1381 -1345 -27 -8 -62 -15 -77 -15 -32 0 -105 25 -124 42
-127 119 -1514 1514 -1533 1543 -32 50 -36 149 -8 206 9 20 105 124 214 231
187 185 200 196 250 208 58 13 118 8 163 -16 16 -8 251 -236 522 -507 271
-271 500 -498 510 -505 15 -12 131 101 1076 1046 583 583 1073 1069 1089 1080
63 45 157 51 229 13z"/>
</g>
</svg>
