<svg width="132" height="48" viewBox="0 0 132 48" fill="none" xmlns="http://www.w3.org/2000/svg">
<g clip-path="url(#clip0)">
<path d="M6.28959 41.0252C6.16159 40.9292 6.07359 40.8412 6.02559 40.7612C5.97759 40.6812 5.95359 40.5612 5.95359 40.4012C5.95359 40.2572 5.96159 40.1372 5.97759 40.0412C6.02559 39.4972 6.14559 38.8652 6.33759 38.1452L6.45759 37.6652C6.50559 37.2652 6.78559 36.4252 7.29759 35.1452C7.80959 33.8652 8.22559 32.9932 8.54559 32.5292C8.67359 32.4492 8.80959 32.4092 8.95359 32.4092C9.16159 32.4092 9.33759 32.4812 9.48159 32.6252C9.57759 32.6892 9.62559 32.8092 9.62559 32.9852C9.62559 33.1452 9.56159 33.3852 9.43359 33.7052C9.32159 34.0092 9.12159 34.4652 8.83359 35.0732C8.76959 35.2012 8.65759 35.4412 8.49759 35.7932C8.35359 36.1452 8.28159 36.3532 8.28159 36.4172C8.28159 36.4492 8.28959 36.4652 8.30559 36.4652C8.33759 36.4652 8.36959 36.4572 8.40159 36.4412C8.43359 36.4092 8.46559 36.3852 8.49759 36.3692C8.67359 36.0652 9.09759 35.6492 9.76959 35.1212C10.4576 34.5932 10.9296 34.2652 11.1856 34.1372C11.2976 34.0732 11.4416 34.0092 11.6176 33.9452C11.7936 33.8812 11.9136 33.8332 11.9776 33.8012C12.2336 33.6732 12.5376 33.6092 12.8896 33.6092C13.1136 33.6092 13.3056 33.6492 13.4656 33.7292C13.6416 33.7932 13.7616 33.8972 13.8256 34.0412C13.8416 34.1532 13.8816 34.2412 13.9456 34.3052C14.0256 34.3692 14.0816 34.4092 14.1136 34.4252C14.1616 34.4252 14.1936 34.4492 14.2096 34.4972C14.2256 34.5292 14.2336 34.5532 14.2336 34.5692C14.2336 34.6812 14.1696 34.7532 14.0416 34.7852C13.9136 34.8012 13.6816 34.8172 13.3456 34.8332C13.1696 34.8492 12.9856 34.8892 12.7936 34.9532C12.6016 35.0172 12.4096 35.0972 12.2176 35.1932C11.3216 35.7052 10.6496 36.1052 10.2016 36.3932C9.76959 36.6812 9.32959 37.0732 8.88159 37.5692C8.70559 37.7612 8.47359 38.1052 8.18559 38.6012C8.07359 38.7132 7.95359 39.0092 7.82559 39.4892C7.71359 39.9532 7.65759 40.2412 7.65759 40.3532C7.64159 40.4012 7.60959 40.4972 7.56159 40.6412C7.51359 40.7692 7.44159 40.8972 7.34559 41.0252C7.15359 41.2812 6.99359 41.4092 6.86559 41.4092C6.72159 41.4092 6.52959 41.2812 6.28959 41.0252ZM18.706 41.0252C18.306 41.3772 17.826 41.5532 17.266 41.5532C16.866 41.5532 16.482 41.4572 16.114 41.2652C15.762 41.0732 15.466 40.8092 15.226 40.4732C15.018 40.2172 14.866 39.9292 14.77 39.6092C14.674 39.2892 14.626 38.8972 14.626 38.4332C14.626 38.2732 14.642 37.9532 14.674 37.4732C14.722 36.8812 14.914 36.2652 15.25 35.6252C15.602 34.9852 16.034 34.4172 16.546 33.9212C17.058 33.4092 17.562 33.0572 18.058 32.8652C18.314 32.7052 18.546 32.6252 18.754 32.6252C18.866 32.6252 18.978 32.6332 19.09 32.6492C19.202 32.6652 19.322 32.6812 19.45 32.6972C19.802 32.7452 20.066 32.8172 20.242 32.9132C20.434 32.9932 20.594 33.1212 20.722 33.2972C21.122 33.6972 21.322 34.1612 21.322 34.6892C21.258 35.0732 21.01 35.5132 20.578 36.0092C20.146 36.5052 19.626 36.9052 19.018 37.2092C18.73 37.3052 18.402 37.3532 18.034 37.3532C17.538 37.3532 17.138 37.2492 16.834 37.0412C16.69 36.9932 16.578 36.9692 16.498 36.9692C16.354 36.9692 16.242 37.0652 16.162 37.2572C16.098 37.4492 16.034 37.8012 15.97 38.3132C15.954 38.4252 15.946 38.5852 15.946 38.7932C15.946 39.6092 16.218 40.0572 16.762 40.1372C17.13 40.2172 17.394 40.2572 17.554 40.2572C17.746 40.2572 17.962 40.1932 18.202 40.0652L18.658 39.8012C18.754 39.7532 18.842 39.6892 18.922 39.6092C19.002 39.5292 19.074 39.4572 19.138 39.3932C19.17 39.3612 19.218 39.3132 19.282 39.2492C19.346 39.1692 19.402 39.1212 19.45 39.1052C19.514 39.0732 19.57 39.0572 19.618 39.0572C19.682 39.0572 19.754 39.0972 19.834 39.1772C19.914 39.2412 19.978 39.2892 20.026 39.3212C20.17 39.3212 20.202 39.4252 20.122 39.6332C20.042 39.8252 19.866 40.0572 19.594 40.3292C19.338 40.5852 19.042 40.8172 18.706 41.0252ZM18.682 35.9372C18.954 35.8252 19.226 35.6252 19.498 35.3372C19.786 35.0492 19.93 34.8092 19.93 34.6172C19.93 34.4252 19.858 34.2652 19.714 34.1372C19.57 34.0092 19.37 33.9452 19.114 33.9452C18.922 33.9452 18.778 33.9612 18.682 33.9932C18.458 34.0572 18.194 34.2332 17.89 34.5212C17.586 34.7932 17.322 35.0732 17.098 35.3612C16.874 35.6492 16.786 35.8172 16.834 35.8652C16.914 36.0092 17.226 36.0812 17.77 36.0812C18.138 36.0812 18.442 36.0332 18.682 35.9372ZM24.3267 41.1692C24.1667 41.2012 24.0227 41.2172 23.8947 41.2172C23.6867 41.2172 23.4947 41.2012 23.3187 41.1692C23.1427 41.1212 23.0547 41.0652 23.0547 41.0012C23.0547 40.9532 23.0467 40.9212 23.0307 40.9052C23.0147 40.8892 22.9827 40.8812 22.9347 40.8812C22.9187 40.8652 22.8707 40.8252 22.7907 40.7612C22.7107 40.6972 22.6147 40.6412 22.5027 40.5932C22.3587 40.3692 22.2867 40.1292 22.2867 39.8732C22.2867 39.6012 22.3587 39.1772 22.5027 38.6012C22.5507 38.0892 22.7907 37.4492 23.2227 36.6812C23.6547 35.9132 24.1587 35.1852 24.7347 34.4972C25.3267 33.8092 25.8547 33.3292 26.3187 33.0572C26.5587 32.8172 26.8627 32.6972 27.2307 32.6972C27.5187 32.6972 27.7907 32.7692 28.0467 32.9132C28.2707 33.0412 28.5027 33.2572 28.7427 33.5612C28.9987 33.8652 29.1987 34.1772 29.3427 34.4972C29.4067 34.7372 29.4387 34.9692 29.4387 35.1932C29.4387 35.4332 29.4067 35.8092 29.3427 36.3212C29.2627 36.6092 29.1907 36.9612 29.1267 37.3772C29.0787 37.7932 29.0547 38.1532 29.0547 38.4572C29.0227 38.6812 29.0387 38.8652 29.1027 39.0092C29.1667 39.1372 29.2547 39.2012 29.3667 39.2012C29.4467 39.2012 29.5347 39.1772 29.6307 39.1292C29.7907 39.0492 29.9667 39.0092 30.1587 39.0092C30.3347 39.0092 30.4787 39.0572 30.5907 39.1532C30.7027 39.2492 30.7587 39.3932 30.7587 39.5852C30.7587 39.8732 30.5587 40.1612 30.1587 40.4492C29.7747 40.7372 29.4067 40.8812 29.0547 40.8812C28.8147 40.8812 28.5907 40.6972 28.3827 40.3292C28.1907 39.9452 27.9987 39.4572 27.8067 38.8652L27.6627 38.3132L26.6307 39.2972L26.0787 39.8492C25.8227 40.1052 25.6787 40.2572 25.6467 40.3052C25.4707 40.6092 25.0307 40.8972 24.3267 41.1692ZM24.3987 39.7532C24.7827 39.5292 25.2547 39.1372 25.8147 38.5772C26.3747 38.0172 26.8387 37.4812 27.2067 36.9692C27.7027 36.3132 28.0147 35.6652 28.1427 35.0252C28.0787 34.8332 27.9747 34.6412 27.8307 34.4492C27.6867 34.2572 27.5587 34.1532 27.4467 34.1372C27.1267 34.1372 26.7907 34.3212 26.4387 34.6892C26.0867 35.0572 25.6707 35.5692 25.1907 36.2252L24.3987 37.4012C24.3027 37.5292 24.1347 37.8732 23.8947 38.4332C23.6547 38.9772 23.5347 39.3052 23.5347 39.4172C23.5347 39.7692 23.6387 39.9452 23.8467 39.9452C24.0067 39.9452 24.1907 39.8812 24.3987 39.7532ZM32.3035 40.7372C32.1275 40.6412 31.9995 40.5452 31.9195 40.4492C31.8555 40.3532 31.8235 40.2172 31.8235 40.0412C31.8235 39.7212 31.9195 39.2092 32.1115 38.5052C32.1595 38.1052 32.2075 37.7852 32.2555 37.5452C32.3195 37.2892 32.4235 37.0412 32.5675 36.8012C32.6315 36.5612 32.7435 36.2012 32.9035 35.7212C33.2555 34.6012 33.4955 33.7372 33.6235 33.1292C33.7515 32.7772 33.8635 32.4652 33.9595 32.1932C34.0555 31.9212 34.1435 31.6732 34.2235 31.4492C34.1915 31.5452 34.3915 31.0012 34.8235 29.8172C34.9515 29.4332 35.0395 29.1372 35.0875 28.9292C35.2635 28.2092 35.4635 27.6652 35.6875 27.2972C35.7995 27.1372 35.8795 27.0012 35.9275 26.8892C35.9915 26.7772 36.0475 26.6892 36.0955 26.6252C36.0955 26.5932 36.1195 26.5692 36.1675 26.5532C36.2155 26.5212 36.2715 26.5052 36.3355 26.5052C36.5275 26.5052 36.6875 26.5692 36.8155 26.6972C36.8955 26.6652 36.9915 26.7612 37.1035 26.9852C37.2315 27.2092 37.2875 27.3852 37.2715 27.5132C37.2715 27.7212 37.2155 27.9132 37.1035 28.0892C37.0395 28.1532 36.9675 28.2732 36.8875 28.4492C36.8075 28.6092 36.7355 28.7452 36.6715 28.8572C36.6395 28.9692 36.5835 29.1612 36.5035 29.4332C36.4395 29.6892 36.3755 29.9052 36.3115 30.0812C36.2315 30.2732 36.1515 30.4572 36.0715 30.6332C36.0075 30.7932 35.9515 30.9372 35.9035 31.0652C35.8395 31.2732 35.7275 31.5852 35.5675 32.0012C35.3435 32.5452 35.1915 32.9692 35.1115 33.2732C35.0795 33.3692 35.0235 33.5692 34.9435 33.8732C34.7195 34.6732 34.5035 35.2572 34.2955 35.6252C34.1675 35.8332 34.0715 36.1132 34.0075 36.4652C33.9595 36.8172 33.9275 37.0332 33.9115 37.1132C33.6715 37.8332 33.5515 38.2572 33.5515 38.3852C33.5195 38.5292 33.4635 38.8092 33.3835 39.2252C33.2875 39.7372 33.1915 40.1052 33.0955 40.3292C33.0635 40.6972 32.9435 40.8812 32.7355 40.8812C32.6075 40.8812 32.4635 40.8332 32.3035 40.7372ZM43.4907 42.6092C43.0587 42.3372 42.7147 41.9532 42.4587 41.4572C42.2187 40.9612 42.1147 40.4492 42.1467 39.9212C42.1307 38.0332 42.4587 36.0412 43.1307 33.9452C43.4187 33.0972 43.7707 32.2092 44.1867 31.2812C44.6027 30.3372 44.9547 29.6172 45.2427 29.1212C45.6907 28.3852 46.1867 27.7372 46.7307 27.1772C47.2747 26.6172 47.7147 26.2412 48.0507 26.0492C48.2587 25.9372 48.5387 25.8332 48.8907 25.7372C49.2587 25.6412 49.6427 25.5932 50.0427 25.5932C50.3627 25.5932 50.6587 25.6252 50.9307 25.6892C51.3147 25.7852 51.6907 25.9212 52.0587 26.0972C52.4267 26.2572 52.6747 26.3932 52.8027 26.5052C52.8667 26.6012 52.9387 26.7132 53.0187 26.8412C53.1147 26.9692 53.1867 27.0812 53.2347 27.1772C53.2827 27.2732 53.3067 27.3772 53.3067 27.4892C53.3227 27.6492 53.2507 27.8412 53.0907 28.0652C52.9467 28.2892 52.7947 28.4012 52.6347 28.4012C52.5387 28.4012 52.4427 28.3452 52.3467 28.2332C52.1867 27.9932 52.0267 27.8172 51.8667 27.7052C51.7067 27.5772 51.5387 27.4732 51.3627 27.3932C51.1867 27.3132 51.0587 27.2492 50.9787 27.2012C50.7707 27.0732 50.4827 27.0092 50.1147 27.0092C49.8267 27.0092 49.5307 27.0572 49.2267 27.1532C48.9387 27.2332 48.6907 27.3612 48.4827 27.5372C48.1947 27.7932 47.8427 28.1772 47.4267 28.6892C47.0107 29.1852 46.6907 29.6492 46.4667 30.0812C45.5067 31.7612 44.8267 33.3452 44.4267 34.8332C44.2987 35.2972 44.1547 35.8812 43.9947 36.5852C43.8347 37.2892 43.7307 37.8172 43.6827 38.1692C43.5867 38.7612 43.5387 39.2972 43.5387 39.7772C43.5387 40.3692 43.6347 40.8252 43.8267 41.1452C44.0347 41.4492 44.3707 41.6012 44.8347 41.6012C45.1547 41.6012 45.5467 41.5212 46.0107 41.3612C46.5387 41.2972 47.1387 40.9932 47.8107 40.4492C48.4827 39.8892 49.0427 39.2572 49.4907 38.5532C50.2107 37.2092 50.5707 36.3052 50.5707 35.8412C50.5707 35.5212 50.4187 35.3612 50.1147 35.3612C49.7947 35.3292 49.3947 35.3132 48.9147 35.3132C48.5947 35.3132 48.3467 35.3052 48.1707 35.2892C47.9947 35.2732 47.8347 35.2252 47.6907 35.1452C47.5787 34.9692 47.5227 34.8172 47.5227 34.6892C47.5227 34.4972 47.6267 34.2972 47.8347 34.0892C48.0587 33.9932 48.4987 33.9452 49.1547 33.9452C50.0827 33.9452 50.8107 34.0732 51.3387 34.3292C51.8347 34.5692 52.0827 35.0572 52.0827 35.7932C52.0827 36.1452 52.0507 36.4572 51.9867 36.7292C51.8427 37.3532 51.3547 38.2892 50.5227 39.5372C50.1547 40.0492 49.6027 40.6092 48.8667 41.2172C48.1467 41.8092 47.5627 42.1932 47.1147 42.3692C46.2347 42.7692 45.4427 42.9692 44.7387 42.9692C44.2427 42.9692 43.8267 42.8492 43.4907 42.6092ZM55.906 41.7212C55.714 41.7372 55.554 41.7292 55.426 41.6972C55.314 41.6492 55.146 41.5532 54.922 41.4092C54.234 40.8492 53.898 40.2972 53.914 39.7532C53.93 39.7052 53.938 39.6332 53.938 39.5372C53.938 39.4412 53.93 39.3692 53.914 39.3212C53.898 39.2572 53.89 39.2172 53.89 39.2012C53.826 39.1532 53.786 39.1212 53.77 39.1052C53.77 39.0732 53.778 39.0412 53.794 39.0092C53.826 38.9772 53.85 38.9452 53.866 38.9132C53.93 38.8972 53.962 38.8652 53.962 38.8172C53.962 38.7692 53.946 38.7132 53.914 38.6492C53.866 38.5212 53.89 38.2332 53.986 37.7852C54.098 37.3212 54.242 36.8892 54.418 36.4892C54.546 36.1852 54.746 35.7932 55.018 35.3132C55.306 34.8332 55.57 34.4652 55.81 34.2092C56.146 33.8252 56.45 33.5292 56.722 33.3212C57.01 33.1132 57.338 32.9452 57.706 32.8172C58.042 32.6732 58.274 32.6012 58.402 32.6012C58.562 32.6012 58.762 32.6972 59.002 32.8892C59.386 33.0012 59.674 33.1612 59.866 33.3692C60.074 33.5612 60.234 33.8652 60.346 34.2812C60.442 34.6172 60.49 34.9932 60.49 35.4092C60.49 36.3052 60.21 37.2892 59.65 38.3612C59.362 38.9372 59.082 39.3852 58.81 39.7052C58.538 40.0092 58.162 40.3692 57.682 40.7852C57.346 41.0572 57.05 41.2652 56.794 41.4092C56.554 41.5532 56.258 41.6572 55.906 41.7212ZM57.826 38.8652C58.162 38.3692 58.418 37.9212 58.594 37.5212C58.77 37.1052 58.914 36.5932 59.026 35.9852C59.042 35.9212 59.05 35.7932 59.05 35.6012C59.05 35.2812 59.018 34.9772 58.954 34.6892C58.89 34.4012 58.81 34.2492 58.714 34.2332C58.586 34.1852 58.466 34.1612 58.354 34.1612C57.986 34.1612 57.594 34.3772 57.178 34.8092C56.794 35.2572 56.458 35.8012 56.17 36.4412C55.898 37.0652 55.626 37.8332 55.354 38.7452C55.274 39.0652 55.234 39.3212 55.234 39.5132C55.234 39.8012 55.29 40.0332 55.402 40.2092C55.514 40.3692 55.674 40.4492 55.882 40.4492C56.138 40.4492 56.434 40.3212 56.77 40.0652C57.106 39.7932 57.458 39.3932 57.826 38.8652ZM61.967 42.0812C61.759 42.0172 61.607 41.8972 61.511 41.7212C61.415 41.5452 61.359 41.2972 61.343 40.9772C61.343 40.7532 61.391 40.4172 61.487 39.9692C61.583 39.5052 61.639 39.2172 61.655 39.1052L61.679 38.9132C61.695 38.8332 61.719 38.6892 61.751 38.4812C61.799 38.2732 61.823 38.2252 61.823 38.3372L61.991 37.6892C62.103 37.2572 62.215 36.8572 62.327 36.4892C62.439 36.1212 62.519 35.8572 62.567 35.6972L62.855 34.8812C63.399 33.3132 63.847 32.2972 64.199 31.8332C64.215 31.7692 64.239 31.7132 64.271 31.6652C64.303 31.6012 64.327 31.5372 64.343 31.4732C64.359 31.2812 64.415 31.1132 64.511 30.9692C64.655 30.7292 64.775 30.5132 64.871 30.3212L64.967 30.0572C65.223 29.5132 65.447 29.0972 65.639 28.8092C65.703 28.6652 65.791 28.4972 65.903 28.3052C66.031 28.1132 66.135 27.9772 66.215 27.8972L66.191 27.8732C66.271 27.7452 66.359 27.6652 66.455 27.6332C66.567 27.6012 66.711 27.5852 66.887 27.5852C67.095 27.5852 67.215 27.6172 67.247 27.6812C67.295 27.7292 67.319 27.8732 67.319 28.1132V28.3292C67.319 28.4892 67.303 28.6092 67.271 28.6892C67.255 28.7692 67.199 28.8652 67.103 28.9772H67.127C67.127 28.9772 67.111 29.0172 67.079 29.0972C67.047 29.1772 67.015 29.2492 66.983 29.3132C66.871 29.6012 66.791 29.7612 66.743 29.7932C66.647 29.9052 66.319 30.5372 65.759 31.6892C65.215 32.8252 64.847 33.6332 64.655 34.1132L64.535 34.4732L64.487 34.6172C64.311 35.0012 64.215 35.2092 64.199 35.2412L63.791 36.6332L63.671 37.1372L63.455 37.6652L63.311 38.1212C63.279 38.1852 63.255 38.2652 63.239 38.3612C63.223 38.4572 63.191 38.5292 63.143 38.5772L63.119 38.6972C62.927 39.5772 62.799 40.4252 62.735 41.2412L62.711 41.3372C62.679 41.6092 62.623 41.8092 62.543 41.9372C62.463 42.0652 62.351 42.1292 62.207 42.1292C62.175 42.1292 62.095 42.1132 61.967 42.0812ZM72.2857 42.3212C71.8857 42.4172 71.6137 42.2412 71.4697 41.7932C71.2457 41.1692 71.1337 40.5132 71.1337 39.8252C71.1337 39.6332 71.1417 39.4972 71.1577 39.4172L71.2057 38.9132L70.2697 39.6572C69.7577 40.1052 69.2457 40.4412 68.7337 40.6652C68.2377 40.8892 67.7817 41.0012 67.3657 41.0012C67.0937 40.9532 66.8297 40.8412 66.5737 40.6652C66.3337 40.4732 66.1577 40.2492 66.0457 39.9932C65.9817 39.8652 65.9497 39.6732 65.9497 39.4172C65.9497 38.8252 66.1097 38.1292 66.4297 37.3292C66.7497 36.5132 67.1497 35.8412 67.6297 35.3132C68.3177 34.2732 69.0857 33.7532 69.9337 33.7532C70.3337 33.7532 70.7337 33.8732 71.1337 34.1132C71.5337 34.2732 71.7657 34.3532 71.8297 34.3532C71.9257 34.3532 71.9977 34.3132 72.0457 34.2332C72.0937 34.1532 72.1417 34.0092 72.1897 33.8012C72.3657 33.0652 72.5337 32.4492 72.6937 31.9532C73.0457 30.8972 73.3497 30.0492 73.6057 29.4092C73.8617 28.7692 74.1737 28.0652 74.5417 27.2972C74.7017 26.9612 74.8377 26.7452 74.9497 26.6492C75.0777 26.5372 75.2137 26.4892 75.3577 26.5052C75.7097 26.5052 75.9817 26.7452 76.1737 27.2252C76.2217 27.3372 76.2457 27.4492 76.2457 27.5612C76.2457 27.6732 76.1977 27.8252 76.1017 28.0172C75.6857 28.7372 75.1737 29.9132 74.5657 31.5452C73.9577 33.1772 73.4857 34.5932 73.1497 35.7932C73.0057 36.3212 72.8777 37.0812 72.7657 38.0732C72.6697 39.0652 72.6217 39.8892 72.6217 40.5452C72.6217 40.8332 72.6377 41.0412 72.6697 41.1692C72.7497 41.4412 72.7897 41.6812 72.7897 41.8892C72.7897 42.0492 72.7497 42.1532 72.6697 42.2012C72.5897 42.2652 72.4617 42.3052 72.2857 42.3212ZM68.2297 39.6572C68.5977 39.5772 69.0457 39.3372 69.5737 38.9372C69.6697 38.8732 69.9017 38.7052 70.2697 38.4332C70.6377 38.1612 70.9177 37.8732 71.1097 37.5692C71.3017 37.2652 71.4377 36.9212 71.5177 36.5372C71.5337 36.2492 71.5017 36.0172 71.4217 35.8412C71.3577 35.6492 71.2217 35.4652 71.0137 35.2892C70.8537 35.1772 70.6537 35.1212 70.4137 35.1212C69.9817 35.1212 69.5817 35.2972 69.2137 35.6492C68.7817 36.0332 68.3977 36.5292 68.0617 37.1372C67.7257 37.7452 67.4697 38.4492 67.2937 39.2492C67.2457 39.5532 67.4057 39.7052 67.7737 39.7052C67.9657 39.7052 68.1177 39.6892 68.2297 39.6572ZM86.968 41.8172C86.584 41.4492 86.296 40.9052 86.104 40.1852C86.072 40.0892 86.056 39.9212 86.056 39.6812C86.056 39.4412 86.056 39.2732 86.056 39.1772C85.96 39.4172 85.784 39.6332 85.528 39.8252C85.16 40.1932 84.792 40.4652 84.424 40.6412C83.864 41.0092 83.408 41.1932 83.056 41.1932C82.736 41.1932 82.432 41.0172 82.144 40.6652C81.936 40.4892 81.776 40.3132 81.664 40.1372C81.568 39.9612 81.52 39.7452 81.52 39.4892C81.52 39.3132 81.544 39.1212 81.592 38.9132C81.624 38.3212 81.704 37.7532 81.832 37.2092C81.976 36.6652 82.24 35.9692 82.624 35.1212C83.136 34.1132 83.504 33.4412 83.728 33.1052C83.808 33.0732 83.912 33.0572 84.04 33.0572C84.2 33.0572 84.328 33.1052 84.424 33.2012C84.536 33.2972 84.6 33.4252 84.616 33.5852C84.664 33.6492 84.688 33.7372 84.688 33.8492C84.688 34.2492 84.448 34.9052 83.968 35.8172C83.344 37.3212 83.032 38.3612 83.032 38.9372C83.032 39.2732 83.128 39.4732 83.32 39.5372C83.4 39.5852 83.488 39.6092 83.584 39.6092C83.984 39.6092 84.464 39.3372 85.024 38.7932C85.584 38.2492 86.12 37.3772 86.632 36.1772C86.856 35.6332 86.992 35.0732 87.04 34.4972C87.024 34.4492 87.016 34.3772 87.016 34.2812C87.016 33.9932 87.16 33.7612 87.448 33.5852C87.512 33.4892 87.6 33.4172 87.712 33.3692C87.824 33.3052 87.896 33.3052 87.928 33.3692L88.312 33.3452C88.36 33.3292 88.408 33.3772 88.456 33.4892C88.504 33.5852 88.552 33.6492 88.6 33.6812C88.712 33.7772 88.768 33.9532 88.768 34.2092C88.768 34.7372 88.536 35.5452 88.072 36.6332C87.768 37.2732 87.56 37.7692 87.448 38.1212C87.352 38.4572 87.296 38.7852 87.28 39.1052C87.28 39.7132 87.512 40.2172 87.976 40.6172C88.136 40.7292 88.232 40.8492 88.264 40.9772C88.296 41.1052 88.304 41.2812 88.288 41.5052C88.256 41.6492 88.16 41.7692 88 41.8652C87.856 41.9452 87.696 41.9852 87.52 41.9852C87.312 41.9852 87.128 41.9292 86.968 41.8172ZM92.0348 41.6732C91.4908 41.6732 91.0188 41.5612 90.6188 41.3372C90.2188 41.1132 89.9548 40.8092 89.8268 40.4252C89.7148 40.1372 89.6588 39.9772 89.6588 39.9452C89.6588 39.8492 89.7148 39.7772 89.8268 39.7292C89.9388 39.7292 90.0668 39.7772 90.2108 39.8732C90.3708 39.9692 90.4988 40.0332 90.5948 40.0652C90.8348 40.2892 91.1628 40.4012 91.5788 40.4012C91.8988 40.4012 92.1868 40.3372 92.4428 40.2092C92.7148 40.0812 92.8668 39.9292 92.8988 39.7532C92.8988 39.6732 92.8188 39.3932 92.6588 38.9132C92.2588 38.3372 91.9468 37.7532 91.7228 37.1612C91.5148 36.5532 91.4108 36.0412 91.4108 35.6252C91.4108 35.3212 91.4988 35.0092 91.6748 34.6892C91.8508 34.3692 92.0908 34.0972 92.3948 33.8732C92.7948 33.4572 93.2748 33.0812 93.8348 32.7452C94.4108 32.4092 94.9308 32.1772 95.3948 32.0492C95.5868 32.0492 95.8188 32.0732 96.0908 32.1212C96.3788 32.1692 96.5788 32.2252 96.6908 32.2892C96.8668 32.3532 97.0348 32.5292 97.1948 32.8172C97.3548 33.1052 97.4348 33.3772 97.4348 33.6332C97.4348 33.8892 97.2988 34.2412 97.0268 34.6892C96.9948 34.8012 96.9308 34.9532 96.8348 35.1452C96.7388 35.3372 96.6908 35.4572 96.6908 35.5052C96.6268 35.6652 96.5228 35.7452 96.3788 35.7452C96.2348 35.7452 96.0908 35.6812 95.9468 35.5532C95.8188 35.4092 95.7148 35.2412 95.6348 35.0492C95.5868 34.8572 95.5628 34.6892 95.5628 34.5452C95.5628 34.3532 95.6268 34.1612 95.7548 33.9692C95.9308 33.7932 96.0188 33.6732 96.0188 33.6092C96.0188 33.5452 95.9308 33.5132 95.7548 33.5132C95.5628 33.5132 95.1948 33.6652 94.6508 33.9692C94.1068 34.2732 93.6748 34.5932 93.3548 34.9292C93.0668 35.2012 92.8908 35.4092 92.8268 35.5532C92.7628 35.6812 92.7308 35.8812 92.7308 36.1532C92.7308 36.3932 92.7788 36.6812 92.8748 37.0172C92.9868 37.3372 93.0988 37.5532 93.2108 37.6652C93.2428 37.7292 93.3068 37.8652 93.4028 38.0732C93.5148 38.2812 93.6428 38.4812 93.7868 38.6732C94.1068 39.3932 94.2668 39.9532 94.2668 40.3532C94.2668 40.8172 94.0828 41.1532 93.7148 41.3612C93.3628 41.5692 92.8028 41.6732 92.0348 41.6732ZM100.599 41.9372C99.9105 41.9372 99.3425 41.6812 98.8945 41.1692C98.4465 40.6572 98.2225 40.0172 98.2225 39.2492C98.2225 38.4812 98.3905 37.6412 98.7265 36.7292C99.0785 35.8012 99.5265 34.9692 100.071 34.2332C100.615 33.4972 101.167 33.0012 101.727 32.7452C102.047 32.5692 102.407 32.4812 102.807 32.4812C103.111 32.4812 103.455 32.5692 103.839 32.7452C104.111 32.8572 104.319 32.9932 104.463 33.1532C104.607 33.3132 104.735 33.5612 104.847 33.8972C104.895 34.1852 104.919 34.3852 104.919 34.4972C104.919 34.5932 104.879 34.8012 104.799 35.1212C104.607 35.7132 104.351 36.2172 104.031 36.6332C103.727 37.0332 103.327 37.3772 102.831 37.6652C102.575 37.8252 102.255 37.9052 101.871 37.9052C101.535 37.9052 101.215 37.8492 100.911 37.7372C100.623 37.6092 100.399 37.4252 100.239 37.1852L100.071 36.9932L99.9985 37.1852C99.6625 38.0492 99.4945 38.7852 99.4945 39.3932C99.4945 39.8092 99.5745 40.1452 99.7345 40.4012C99.8465 40.5772 100.119 40.6652 100.551 40.6652C100.871 40.6652 101.103 40.6332 101.247 40.5692C101.487 40.4892 101.695 40.3932 101.871 40.2812C102.063 40.1532 102.247 40.0252 102.423 39.8972L102.519 39.8492H102.495C102.687 39.7532 102.847 39.6652 102.975 39.5852C103.103 39.5052 103.191 39.4492 103.239 39.4172C103.271 39.4172 103.303 39.4092 103.335 39.3932C103.367 39.3772 103.399 39.3452 103.431 39.2972C103.575 39.2332 103.743 39.2572 103.935 39.3692C104.127 39.4812 104.223 39.6252 104.223 39.8012C104.191 39.9292 104.047 40.1372 103.791 40.4252C103.535 40.7132 103.343 40.8652 103.215 40.8812C103.199 40.8812 103.143 40.9052 103.047 40.9532C102.951 41.0012 102.887 41.0412 102.855 41.0732H102.879C102.735 41.2652 102.591 41.3612 102.447 41.3612H102.255C102.191 41.4892 101.975 41.6172 101.607 41.7452C101.255 41.8732 100.919 41.9372 100.599 41.9372ZM101.679 36.6572C102.159 36.6572 102.599 36.3852 102.999 35.8412C103.383 35.3292 103.575 34.8172 103.575 34.3052C103.575 34.0332 103.519 33.8412 103.407 33.7292C103.311 33.6812 103.223 33.6572 103.143 33.6572C103.063 33.6572 102.927 33.6812 102.735 33.7292C102.527 33.7772 102.207 34.0012 101.775 34.4012C101.343 34.7852 101.023 35.1292 100.815 35.4332L100.503 35.9372C100.631 35.8892 100.751 35.8652 100.863 35.8652C100.991 35.8492 101.063 35.8572 101.079 35.8892C101.079 36.1132 101.135 36.2972 101.247 36.4412C101.359 36.5852 101.503 36.6572 101.679 36.6572ZM107.299 41.3132C107.235 41.4252 107.155 41.4812 107.059 41.4812C106.963 41.4812 106.859 41.4492 106.747 41.3852C106.651 41.3212 106.595 41.2812 106.579 41.2652C106.339 41.2652 106.187 41.1372 106.123 40.8812C106.107 40.8492 106.099 40.7772 106.099 40.6652C106.099 40.4572 106.195 40.0492 106.387 39.4412L106.555 38.6732C106.715 37.9692 106.859 37.3772 106.987 36.8972C107.035 36.8172 107.131 36.5452 107.275 36.0812C107.371 35.7292 107.499 35.3852 107.659 35.0492C107.851 34.3292 108.155 33.6172 108.571 32.9132C108.603 32.8652 108.667 32.8012 108.763 32.7212C108.859 32.6412 108.931 32.6012 108.979 32.6012C109.075 32.5052 109.179 32.4572 109.291 32.4572C109.403 32.4572 109.547 32.5292 109.723 32.6732C109.883 32.8652 109.963 33.0492 109.963 33.2252C109.963 33.5292 109.763 33.9852 109.363 34.5932L108.979 35.5292C108.947 35.6092 108.867 35.8012 108.739 36.1052C108.611 36.3932 108.531 36.6572 108.499 36.8972C108.707 36.6092 109.083 36.1932 109.627 35.6492C109.947 35.3292 110.211 35.0972 110.419 34.9532C110.627 34.7932 110.931 34.5852 111.331 34.3292C111.619 34.1212 111.875 33.9692 112.099 33.8732C112.323 33.7772 112.571 33.7292 112.843 33.7292C112.987 33.7292 113.099 33.7372 113.179 33.7532C113.403 33.7372 113.579 33.8492 113.707 34.0892C113.835 34.3292 113.915 34.6412 113.947 35.0252C113.755 34.9932 113.619 34.9772 113.539 34.9772C113.219 34.9772 112.931 35.0412 112.675 35.1692C112.435 35.2972 112.235 35.4252 112.075 35.5532C111.915 35.6652 111.811 35.7372 111.763 35.7692C110.899 36.3292 110.227 36.8572 109.747 37.3532C109.251 37.8972 108.899 38.2972 108.691 38.5532C108.499 38.8092 108.355 39.0652 108.259 39.3212C108.211 39.4332 108.075 39.7692 107.851 40.3292C107.627 40.8732 107.443 41.2012 107.299 41.3132ZM116.212 41.9612C115.924 41.8492 115.644 41.6892 115.372 41.4812C115.1 41.2572 114.916 41.0652 114.82 40.9052C114.82 40.8732 114.82 40.8172 114.82 40.7372C114.82 40.6572 114.844 40.6092 114.892 40.5932C114.94 40.5612 115.028 40.5452 115.156 40.5452C115.428 40.5452 115.86 40.5772 116.452 40.6412C116.804 40.6412 117.204 40.6012 117.652 40.5212C118.1 40.4252 118.348 40.3212 118.396 40.2092C118.444 40.2092 118.468 40.2012 118.468 40.1852C118.468 40.1532 118.404 40.0732 118.276 39.9452C118.244 39.9452 118.172 39.9212 118.06 39.8732C117.948 39.8092 117.876 39.7772 117.844 39.7772C117.844 39.7132 117.772 39.6332 117.628 39.5372C117.484 39.4252 117.324 39.3292 117.148 39.2492C116.684 38.8652 116.356 38.5852 116.164 38.4092C115.972 38.2172 115.9 38.0812 115.948 38.0012V37.8812C115.836 37.8812 115.708 37.7292 115.564 37.4252C115.436 37.1052 115.372 36.8092 115.372 36.5372C115.372 36.2492 115.492 35.8492 115.732 35.3372C115.988 34.8252 116.276 34.4092 116.596 34.0892C117.044 33.6732 117.62 33.2332 118.324 32.7692C119.044 32.3052 119.612 32.0092 120.028 31.8812C120.3 31.7692 120.572 31.7132 120.844 31.7132C121.1 31.7132 121.316 31.7692 121.492 31.8812C121.7 32.0092 121.9 32.1932 122.092 32.4332C122.3 32.6732 122.436 32.8892 122.5 33.0812C122.5 33.4332 122.46 33.7772 122.38 34.1132C122.316 34.4332 122.212 34.5932 122.068 34.5932C122.052 34.5932 122.028 34.6012 121.996 34.6172C121.964 34.6332 121.948 34.6732 121.948 34.7372C121.948 34.8012 121.916 34.8892 121.852 35.0012C121.788 35.0972 121.7 35.1932 121.588 35.2892C121.236 35.5452 120.948 35.6732 120.724 35.6732C120.548 35.6732 120.436 35.5852 120.388 35.4092C120.356 35.3772 120.324 35.3292 120.292 35.2652C120.26 35.2012 120.22 35.1692 120.172 35.1692C120.156 35.1692 120.124 35.1452 120.076 35.0972C120.044 35.0332 120.028 34.9532 120.028 34.8572C120.028 34.8092 120.044 34.7612 120.076 34.7132C120.124 34.6492 120.156 34.6092 120.172 34.5932C120.268 34.5932 120.428 34.4092 120.652 34.0412C120.876 33.6572 120.988 33.4012 120.988 33.2732C120.988 33.1772 120.972 33.1212 120.94 33.1052C120.924 33.0892 120.852 33.0812 120.724 33.0812C119.476 33.6412 118.7 34.0652 118.396 34.3532C118.348 34.4492 118.308 34.5132 118.276 34.5452C118.26 34.5772 118.22 34.5932 118.156 34.5932C118.156 34.4492 117.732 34.9932 116.884 36.2252C116.852 36.2572 116.812 36.3532 116.764 36.5132C116.732 36.6732 116.716 36.8092 116.716 36.9212C116.684 37.0492 116.668 37.1212 116.668 37.1372C116.668 37.2012 116.692 37.2652 116.74 37.3292C116.804 37.3932 116.884 37.4652 116.98 37.5452C117.076 37.6092 117.172 37.6812 117.268 37.7612C118.1 38.3852 118.676 38.8572 118.996 39.1772C119.332 39.4812 119.532 39.7372 119.596 39.9452C119.804 40.2652 119.908 40.5532 119.908 40.8092C119.908 41.0012 119.836 41.1692 119.692 41.3132C119.548 41.4572 119.332 41.5932 119.044 41.7212C118.868 41.8012 118.572 41.8652 118.156 41.9132C117.74 41.9772 117.332 42.0092 116.932 42.0092C116.708 42.0092 116.468 41.9932 116.212 41.9612ZM125.255 37.7852C124.951 37.8492 124.711 37.7612 124.535 37.5212C124.359 37.2812 124.271 36.9292 124.271 36.4652C124.271 36.0492 124.343 35.5692 124.487 35.0252C124.711 34.5772 124.823 34.2412 124.823 34.0172C124.903 33.7452 125.031 33.4012 125.207 32.9852C125.383 32.5532 125.527 32.2252 125.639 32.0012C125.703 32.0012 125.767 31.9452 125.831 31.8332C125.911 31.7212 125.951 31.6092 125.951 31.4972C125.951 31.3532 125.975 31.2092 126.023 31.0652C126.087 30.9052 126.151 30.7932 126.215 30.7292C126.215 30.6812 126.247 30.6012 126.311 30.4892C126.375 30.3612 126.407 30.2732 126.407 30.2252C126.407 30.1932 126.423 30.1452 126.455 30.0812C126.503 30.0012 126.527 29.9372 126.527 29.8892C126.815 29.4092 127.231 28.5052 127.775 27.1772C128.319 25.8492 128.599 25.0812 128.615 24.8732C128.663 24.6012 128.807 24.4892 129.047 24.5372C129.127 24.4732 129.255 24.4412 129.431 24.4412L129.767 24.8252C129.879 24.9372 129.943 25.0572 129.959 25.1852C129.991 25.2972 130.007 25.4732 130.007 25.7132C129.991 25.9532 129.919 26.2172 129.791 26.5052C129.663 26.7772 129.511 27.0652 129.335 27.3692C129.159 27.6732 129.039 27.8892 128.975 28.0172L128.663 28.5932C128.407 29.0412 128.279 29.3052 128.279 29.3852C128.279 29.4492 128.239 29.5692 128.159 29.7452C128.079 29.9052 128.015 30.0412 127.967 30.1532C127.823 30.3932 127.663 30.6972 127.487 31.0652C127.311 31.4172 127.223 31.6252 127.223 31.6892C127.207 31.7212 127.183 31.7772 127.151 31.8572C127.135 31.9372 127.095 32.0092 127.031 32.0732C126.983 32.0732 126.951 32.1132 126.935 32.1932C126.919 32.2572 126.911 32.3052 126.911 32.3372C126.911 32.4172 126.871 32.5772 126.791 32.8172C126.711 33.0572 126.599 33.3212 126.455 33.6092C125.911 35.1612 125.615 36.2652 125.567 36.9212C125.535 37.3052 125.503 37.5292 125.471 37.5932C125.455 37.6572 125.383 37.7212 125.255 37.7852ZM123.959 41.6252C123.655 41.7372 123.423 41.7932 123.263 41.7932C123.055 41.7932 122.815 41.6972 122.543 41.5052C122.319 41.2812 122.207 41.0572 122.207 40.8332C122.207 40.4812 122.479 40.1212 123.023 39.7532C123.343 39.5612 123.575 39.4652 123.719 39.4652C123.799 39.4652 123.991 39.5212 124.295 39.6332C124.727 39.8892 124.943 40.1852 124.943 40.5212C124.943 40.7132 124.855 40.9052 124.679 41.0972C124.519 41.2892 124.279 41.4652 123.959 41.6252Z" fill="black"/>
<path d="M101.172 19.1052C104.971 10.3062 109.513 6.07302 116.523 0.464844" stroke="black" stroke-linecap="round" stroke-linejoin="round"/>
<path d="M106.992 0.708721C108.281 0.587396 109.582 0.52994 110.874 0.471211C111.996 0.420219 113.116 0.0868769 114.238 0.0868769C114.334 0.0868769 116.311 -0.177632 116.311 0.216428C116.311 0.655362 116.019 1.17418 115.914 1.5983C115.722 2.37501 115.529 3.18248 115.404 3.9734C115.317 4.52751 115.543 5.03319 115.543 5.56687C115.543 6.04031 115.62 6.57709 115.62 7.08262" stroke="black" stroke-linecap="round" stroke-linejoin="round"/>
</g>
<defs>
<clipPath id="clip0">
<rect width="132" height="48" fill="white"/>
</clipPath>
</defs>
</svg>
