<svg width="91" height="16" viewBox="0 0 91 16" fill="none" xmlns="http://www.w3.org/2000/svg">
<path d="M20.168 0.751953V12.2157H22.5189V4.72621H22.6141L25.5808 12.1597H27.1817L30.1484 4.75419H30.2435V12.2157H32.5945V0.751953H29.6054L26.4484 8.45417H26.3141L23.1571 0.751953H20.168Z" fill="#00AD71" fill-opacity="0.9"/>
<path d="M36.9984 12.378C38.269 12.378 39.0919 11.8239 39.5117 11.0234H39.5788V12.2157H41.8402V6.41666C41.8402 4.36796 40.105 3.50594 38.1906 3.50594C36.1308 3.50594 34.7761 4.49111 34.4459 6.05842L36.6513 6.23754C36.8137 5.66659 37.323 5.24678 38.1795 5.24678C38.9911 5.24678 39.4557 5.6554 39.4557 6.36069V6.39427C39.4557 6.94843 38.8679 7.0212 37.3734 7.16673C35.6718 7.32347 34.1436 7.89441 34.1436 9.81437C34.1436 11.516 35.3583 12.378 36.9984 12.378ZM37.6813 10.7324C36.948 10.7324 36.4218 10.3909 36.4218 9.736C36.4218 9.0643 36.976 8.73404 37.8156 8.6165C38.3362 8.54373 39.187 8.42058 39.4725 8.23027V9.14267C39.4725 10.0439 38.728 10.7324 37.6813 10.7324Z" fill="#00AD71" fill-opacity="0.9"/>
<path d="M43.6902 12.2157H46.0748V9.48412L46.7185 8.75084L49.0639 12.2157H51.857L48.5041 7.34026L51.6947 3.61789H48.9575L46.2035 6.88126H46.0748V0.751953H43.6902V12.2157Z" fill="#00AD71" fill-opacity="0.9"/>
<path d="M56.4288 12.3836C58.5559 12.3836 59.9889 11.3481 60.3247 9.7528L58.1193 9.60726C57.8786 10.2622 57.2629 10.6036 56.468 10.6036C55.2757 10.6036 54.5201 9.81437 54.5201 8.53253V8.52694H60.3751V7.87202C60.3751 4.95011 58.6063 3.50594 56.3337 3.50594C53.8036 3.50594 52.1635 5.30275 52.1635 7.95599C52.1635 10.682 53.7812 12.3836 56.4288 12.3836ZM54.5201 7.04919C54.5704 6.06962 55.3149 5.28596 56.3729 5.28596C57.4084 5.28596 58.1249 6.02484 58.1305 7.04919H54.5201Z" fill="#00AD71" fill-opacity="0.9"/>
<path d="M61.9312 12.2157H64.3158V7.35145C64.3158 6.29352 65.0882 5.56584 66.1406 5.56584C66.4708 5.56584 66.9242 5.62181 67.1481 5.69458V3.57871C66.9354 3.52833 66.6387 3.49475 66.398 3.49475C65.4353 3.49475 64.646 4.0545 64.3326 5.11803H64.243V3.61789H61.9312V12.2157Z" fill="#00AD71" fill-opacity="0.9"/>
<path d="M70.7655 0.751953H68.381V12.2157H70.7655V0.751953Z" fill="#00AD71" fill-opacity="0.9"/>
<path d="M76.5604 12.3836C79.1688 12.3836 80.7921 10.598 80.7921 7.95039C80.7921 5.28596 79.1688 3.50594 76.5604 3.50594C73.9519 3.50594 72.3286 5.28596 72.3286 7.95039C72.3286 10.598 73.9519 12.3836 76.5604 12.3836ZM76.5716 10.5365C75.3681 10.5365 74.7524 9.43374 74.7524 7.9336C74.7524 6.43346 75.3681 5.32514 76.5716 5.32514C77.7527 5.32514 78.3684 6.43346 78.3684 7.9336C78.3684 9.43374 77.7527 10.5365 76.5716 10.5365Z" fill="#00AD71" fill-opacity="0.9"/>
<path d="M86.2161 15.563C88.6735 15.563 90.4199 14.4435 90.4199 12.2997V3.61789H88.0521V5.06206H87.9626C87.6435 4.36237 86.9438 3.50594 85.5052 3.50594C83.6189 3.50594 82.0236 4.9725 82.0236 7.90001C82.0236 10.7604 83.5741 12.0926 85.5108 12.0926C86.8822 12.0926 87.6491 11.4041 87.9626 10.6932H88.0633V12.2661C88.0633 13.3912 87.3077 13.8502 86.2721 13.8502C85.2198 13.8502 84.688 13.3912 84.4921 12.9266L82.2867 13.2233C82.5721 14.5219 83.8988 15.563 86.2161 15.563ZM86.2665 10.3014C85.0966 10.3014 84.4585 9.37216 84.4585 7.88882C84.4585 6.42786 85.0854 5.40351 86.2665 5.40351C87.4252 5.40351 88.0745 6.38308 88.0745 7.88882C88.0745 9.40575 87.414 10.3014 86.2665 10.3014Z" fill="#00AD71" fill-opacity="0.9"/>
<path d="M12.8072 6.40359C12.8072 9.9402 9.9402 12.8072 6.40359 12.8072C2.86697 12.8072 0 9.9402 0 6.40359C0 2.86697 2.86697 0 6.40359 0C9.9402 0 12.8072 2.86697 12.8072 6.40359ZM5.66289 9.79423L10.4139 5.04319C10.5753 4.88186 10.5753 4.62027 10.4139 4.45894L9.82969 3.87469C9.66836 3.71333 9.40676 3.71333 9.24541 3.87469L5.37075 7.74932L3.56176 5.94033C3.40043 5.779 3.13884 5.779 2.97749 5.94033L2.39324 6.52458C2.23191 6.68591 2.23191 6.9475 2.39324 7.10883L5.07861 9.79421C5.23997 9.95556 5.50153 9.95556 5.66289 9.79423Z" fill="#00AD71" fill-opacity="0.9"/>
</svg>
