<svg width="1087" height="187" viewBox="0 0 1087 187" fill="none" xmlns="http://www.w3.org/2000/svg">
<path d="M242.314 9.03906V146.781H270.562V56.7912H271.706L307.352 146.108H326.587L362.233 57.1275H363.376V146.781H391.624V9.03906H355.709L317.776 101.584H316.162L278.229 9.03906H242.314Z" fill="white"/>
<path d="M444.538 148.731C459.805 148.731 469.692 142.073 474.736 132.455H475.543V146.781H502.715V77.1027C502.715 52.4868 481.866 42.1293 458.864 42.1293C434.113 42.1293 417.837 53.9665 413.869 72.7983L440.368 74.9505C442.319 68.0903 448.439 63.0461 458.729 63.0461C468.482 63.0461 474.064 67.9558 474.064 76.4302V76.8337C474.064 83.4921 467.002 84.3664 449.044 86.1151C428.598 87.9983 410.237 94.8585 410.237 117.927C410.237 138.373 424.832 148.731 444.538 148.731ZM452.743 128.958C443.933 128.958 437.611 124.855 437.611 116.986C437.611 108.915 444.269 104.947 454.358 103.535C460.613 102.66 470.835 101.181 474.266 98.8939V109.857C474.266 120.685 465.32 128.958 452.743 128.958Z" fill="white"/>
<path d="M524.943 146.781H553.595V113.959L561.329 105.149L589.51 146.781H623.071L582.784 88.2001L621.12 43.4744H588.232L555.142 82.685H553.595V9.03906H524.943V146.781Z" fill="white"/>
<path d="M678.003 148.798C703.56 148.798 720.778 136.356 724.813 117.188L698.314 115.439C695.422 123.308 688.024 127.411 678.473 127.411C664.148 127.411 655.068 117.927 655.068 102.526V102.458H725.418V94.5894C725.418 59.4815 704.165 42.1293 676.859 42.1293C646.459 42.1293 626.753 63.7187 626.753 95.5983C626.753 128.352 646.19 148.798 678.003 148.798ZM655.068 84.7027C655.673 72.9328 664.619 63.5169 677.33 63.5169C689.772 63.5169 698.381 72.3948 698.449 84.7027H655.068Z" fill="white"/>
<path d="M744.116 146.781H772.767V88.3346C772.767 75.6231 782.048 66.8797 794.693 66.8797C798.661 66.8797 804.109 67.5523 806.799 68.4266V43.0036C804.243 42.3983 800.679 41.9948 797.787 41.9948C786.218 41.9948 776.735 48.7204 772.969 61.4992H771.893V43.4744H744.116V146.781Z" fill="white"/>
<path d="M850.263 9.03906H821.612V146.781H850.263V9.03906Z" fill="white"/>
<path d="M919.891 148.798C951.232 148.798 970.737 127.343 970.737 95.531C970.737 63.5169 951.232 42.1293 919.891 42.1293C888.549 42.1293 869.045 63.5169 869.045 95.531C869.045 127.343 888.549 148.798 919.891 148.798ZM920.025 126.604C905.565 126.604 898.167 113.354 898.167 95.3293C898.167 77.3045 905.565 63.9877 920.025 63.9877C934.216 63.9877 941.615 77.3045 941.615 95.3293C941.615 113.354 934.216 126.604 920.025 126.604Z" fill="white"/>
<path d="M1035.91 187C1065.43 187 1086.42 173.549 1086.42 147.789V43.4744H1057.97V60.8266H1056.89C1053.06 52.4196 1044.65 42.1293 1027.37 42.1293C1004.7 42.1293 985.533 59.7505 985.533 94.9257C985.533 129.294 1004.16 145.301 1027.43 145.301C1043.91 145.301 1053.13 137.028 1056.89 128.487H1058.1V147.386C1058.1 160.904 1049.02 166.419 1036.58 166.419C1023.94 166.419 1017.55 160.904 1015.19 155.322L988.694 158.887C992.124 174.49 1008.06 187 1035.91 187ZM1036.51 123.779C1022.46 123.779 1014.79 112.614 1014.79 94.7912C1014.79 77.2372 1022.32 64.9293 1036.51 64.9293C1050.44 64.9293 1058.24 76.6992 1058.24 94.7912C1058.24 113.018 1050.3 123.779 1036.51 123.779Z" fill="white"/>
<path d="M153.883 76.9415C153.883 119.435 119.435 153.883 76.9415 153.883C34.4478 153.883 0 119.435 0 76.9415C0 34.4478 34.4478 0 76.9415 0C119.435 0 153.883 34.4478 153.883 76.9415ZM68.0418 117.681L125.127 60.5958C127.066 58.6574 127.066 55.5143 125.127 53.5758L118.107 46.5558C116.169 44.6171 113.026 44.6171 111.087 46.5558L64.5316 93.1111L42.7959 71.3754C40.8575 69.437 37.7144 69.437 35.7756 71.3754L28.7557 78.3954C26.8172 80.3338 26.8172 83.4769 28.7557 85.4153L61.0215 117.681C62.9602 119.62 66.103 119.62 68.0418 117.681Z" fill="white"/>
</svg>
